# Blender v2.92.0 OBJ File: ''
# www.blender.org
mtllib fish01.mtl
o fish01
v -19.500000 2.302734 7.996094
v -18.437500 9.750000 5.484375
v -25.875000 8.210938 6.136719
v -28.265625 5.375000 6.250000
v 8.242188 -10.671875 2.888672
v 0.326904 -11.148438 4.640625
v 0.000004 -22.828125 2.316406
v 10.015625 -21.890625 0.092285
v 16.421875 -8.757813 1.064453
v 17.359375 -18.984375 -1.533203
v 22.531250 -15.882813 -2.601563
v 29.375000 -6.460938 -3.835938
v 23.187500 -6.949219 -0.335205
v -9.304688 -11.023438 6.535156
v -12.609375 -21.109375 4.687500
v -20.718750 -6.144531 8.125000
v -23.734375 -13.867188 5.992188
v 39.750000 5.539063 -5.160156
v 30.328125 6.582031 -3.988281
v 29.984375 -0.302002 -2.990234
v 39.531250 -0.106079 -5.140625
v 32.812500 12.976563 -4.355469
v 41.312500 12.703125 -5.292969
v 39.968750 -5.171875 -5.179688
v 30.640625 -6.382813 -4.035156
v 36.281250 -12.437500 -4.804688
v 41.343750 -12.304688 -5.296875
v 39.406250 -18.296875 -5.132813
v 41.531250 -19.484375 -5.308594
v 35.562500 17.015625 -4.718750
v 38.687500 19.343750 -5.062500
v 17.593750 18.468750 -1.585938
v 16.109375 8.304688 1.129883
v 23.265625 6.484375 -0.348389
v 23.984375 13.140625 -2.882813
v -4.542969 22.609375 3.251953
v -12.531250 19.359375 4.671875
v -9.117188 10.296875 6.503906
v -0.906250 10.054688 4.902344
v 29.328125 6.433594 -3.830078
v 15.960938 -0.371826 2.271484
v 23.343750 -0.398438 0.229492
v 0.270996 -1.003906 5.761719
v 6.949219 -0.709961 4.875000
v -8.101563 -0.667969 6.914063
v -27.828125 -5.710938 6.234375
v -29.921875 1.003906 6.300781
v 7.074219 9.226563 3.152344
v 8.312500 22.250000 0.929688
v 23.984375 13.140625 -3.562500
v 23.984375 13.140625 -2.882813
v 29.328125 6.433594 -3.830078
v 29.328125 6.433594 -4.507813
v 10.015625 -21.890625 -0.586426
v 10.015625 -21.890625 0.092285
v 0.000004 -22.828125 2.316406
v 0.000004 -22.828125 1.637695
v -12.609375 -21.109375 4.007813
v -12.609375 -21.109375 4.687500
v -23.734375 -13.867188 5.992188
v -23.734375 -13.867188 5.312500
v 17.593750 18.468750 -2.263672
v 17.593750 18.468750 -1.585938
v 32.812500 12.976563 -5.035156
v 32.812500 12.976563 -4.355469
v 35.562500 17.015625 -4.718750
v 35.562500 17.015625 -5.398438
v 38.687500 19.343750 -5.742188
v 38.687500 19.343750 -5.062500
v 43.093750 20.750000 -5.417969
v 43.093750 20.750000 -6.097656
v 36.281250 -12.437500 -5.484375
v 36.281250 -12.437500 -4.804688
v 30.640625 -6.382813 -4.035156
v 30.640625 -6.382813 -4.714844
v 39.968750 -5.171875 -5.859375
v 39.968750 -5.171875 -5.179688
v 41.343750 -12.304688 -5.296875
v 41.343750 -12.304688 -5.976563
v 30.328125 6.582031 -4.664063
v 30.328125 6.582031 -3.988281
v 43.656250 20.187500 -6.128906
v 43.656250 20.187500 -5.453125
v 41.312500 12.703125 -5.292969
v 41.312500 12.703125 -5.968750
v -28.265625 5.375000 5.570313
v -29.921875 1.003906 5.625000
v -29.921875 1.003906 6.300781
v -28.265625 5.375000 6.250000
v 22.531250 -15.882813 -3.279297
v 22.531250 -15.882813 -2.601563
v 17.359375 -18.984375 -1.533203
v 17.359375 -18.984375 -2.210938
v -19.500000 2.302734 2.527344
v -25.875000 8.210938 5.457031
v -18.437500 9.750000 4.804688
v 0.326904 -11.148438 -0.827637
v 8.242188 -10.671875 -2.582031
v 16.421875 -8.757813 -4.406250
v 23.187500 -6.949219 -5.804688
v 29.375000 -6.460938 -4.515625
v -9.304688 -11.023438 1.066406
v -20.718750 -6.144531 2.652344
v 29.984375 -0.302002 -5.554688
v 39.750000 5.539063 -5.839844
v 39.531250 -0.106079 -5.820313
v 39.406250 -18.296875 -5.808594
v 41.531250 -19.484375 -5.988281
v 23.265625 6.484375 -5.820313
v 16.109375 8.304688 -4.339844
v -9.117188 10.296875 1.032227
v -12.531250 19.359375 3.996094
v -4.542969 22.609375 2.572266
v -0.906250 10.054688 -0.565918
v 15.960938 -0.371826 -5.414063
v 23.343750 -0.398438 -6.425781
v 0.270996 -1.003906 -1.924805
v 6.949219 -0.709961 -3.984375
v -8.101563 -0.667969 0.257813
v -27.828125 -5.710938 5.554688
v 7.074219 9.226563 -2.318359
v 8.312500 22.250000 -0.654297
v -25.875000 8.210938 6.136719
v -27.828125 -5.710938 6.234375
v -12.531250 19.359375 4.671875
v -4.542969 22.609375 3.251953
v 29.375000 -6.460938 -3.835938
v -18.437500 9.750000 5.484375
v 39.531250 -0.106079 -5.140625
v 39.750000 5.539063 -5.160156
v 43.968750 -18.984375 -6.148438
v 43.968750 -18.984375 -5.472656
v 43.750000 -19.359375 -6.136719
v 43.750000 -19.359375 -5.457031
v 41.531250 -19.484375 -5.308594
v 39.406250 -18.296875 -5.132813
v 43.656250 20.187500 -5.453125
v 43.093750 20.750000 -5.417969
v 43.968750 -18.984375 -5.472656
v 43.750000 -19.359375 -5.457031
v -1.693359 24.281250 2.673828
v -1.693359 24.281250 1.995117
v -1.693359 24.281250 2.673828
v -1.389648 -7.566406 9.257813
v -10.914063 -10.632813 6.714844
v -12.992188 -14.796875 6.035156
v -3.548828 -18.296875 7.558594
v -1.389648 -7.566406 9.257813
v -3.548828 -18.296875 7.558594
v -12.992188 -14.796875 6.035156
v -10.914063 -10.632813 6.714844
v -1.420898 -7.484375 -4.664063
v -3.509766 -18.234375 -2.132813
v -12.992188 -14.796875 2.777344
v -10.914063 -10.632813 1.437500
v -1.420898 -7.484375 -4.664063
v -10.914063 -10.632813 1.437500
v -12.992188 -14.796875 2.777344
v -3.509766 -18.234375 -2.132813
v 8.312500 22.250000 0.929688
v -1.842773 24.015625 2.365234
v 4.148438 28.953125 1.072266
v 12.617188 27.562500 -0.831055
v 8.085938 21.968750 0.187866
v 22.921875 23.390625 -3.017578
v 17.515625 18.171875 -1.909180
v -1.842773 24.015625 2.365234
v 8.085938 21.968750 0.187866
v 12.617188 27.562500 -0.831055
v 4.148438 28.953125 1.072266
v 22.921875 23.390625 -3.017578
v 17.515625 18.171875 -1.909180
vt 0.824707 0.319336
vt 0.804199 0.437012
vt 0.934082 0.385742
vt 0.964355 0.349609
vt 0.466064 0.179688
vt 0.566895 0.173828
vt 0.570801 0.025391
vt 0.443604 0.037109
vt 0.362061 0.204102
vt 0.350342 0.074219
vt 0.284424 0.113770
vt 0.201782 0.241699
vt 0.275879 0.227051
vt 0.689453 0.175293
vt 0.731445 0.046875
vt 0.843750 0.213867
vt 0.863770 0.100098
vt 0.065491 0.386230
vt 0.185425 0.399414
vt 0.189697 0.312012
vt 0.068359 0.314453
vt 0.153687 0.480469
vt 0.045685 0.477051
vt 0.062561 0.250000
vt 0.181274 0.234375
vt 0.109436 0.157715
vt 0.045013 0.159180
vt 0.069702 0.083008
vt 0.042908 0.067871
vt 0.118469 0.531982
vt 0.078857 0.561523
vt 0.347168 0.550537
vt 0.365967 0.421387
vt 0.275146 0.397949
vt 0.265869 0.482910
vt 0.628906 0.603027
vt 0.730469 0.561768
vt 0.687012 0.446777
vt 0.582520 0.443848
vt 0.197876 0.397461
vt 0.367920 0.311035
vt 0.274170 0.310547
vt 0.567383 0.302734
vt 0.482666 0.306641
vt 0.673828 0.307129
vt 0.958496 0.194824
vt 0.984863 0.280273
vt 0.480957 0.433105
vt 0.465332 0.598633
vt 0.265869 0.482910
vt 0.260254 0.487793
vt 0.199585 0.411133
vt 0.197876 0.397461
vt 0.443604 0.037109
vt 0.440186 0.029297
vt 0.571289 0.016602
vt 0.570801 0.025391
vt 0.731445 0.046875
vt 0.735352 0.039551
vt 0.873047 0.098633
vt 0.863770 0.100098
vt 0.347168 0.550537
vt 0.338135 0.560059
vt 0.153687 0.480469
vt 0.160400 0.485352
vt 0.124207 0.537109
vt 0.118469 0.531982
vt 0.078857 0.561523
vt 0.084045 0.567871
vt 0.021423 0.585938
vt 0.023010 0.579590
vt 0.109436 0.157715
vt 0.120667 0.156250
vt 0.181396 0.218750
vt 0.181274 0.234375
vt 0.062561 0.250000
vt 0.053986 0.250488
vt 0.036255 0.160645
vt 0.045013 0.159180
vt 0.185425 0.399414
vt 0.188354 0.413086
vt 0.015884 0.572510
vt 0.009590 0.573730
vt 0.037140 0.475586
vt 0.045685 0.477051
vt 0.964355 0.349609
vt 0.984863 0.280273
vt 0.992676 0.279785
vt 0.970215 0.354980
vt 0.284424 0.113770
vt 0.279785 0.103516
vt 0.345703 0.067383
vt 0.350342 0.074219
vt 0.824707 0.319336
vt 0.934082 0.385742
vt 0.804199 0.437012
vt 0.566895 0.173828
vt 0.466064 0.179688
vt 0.362061 0.204102
vt 0.275879 0.227051
vt 0.197510 0.233398
vt 0.689453 0.175293
vt 0.843750 0.213867
vt 0.189697 0.312012
vt 0.065491 0.386230
vt 0.068359 0.314453
vt 0.069702 0.083008
vt 0.042908 0.067871
vt 0.275146 0.397949
vt 0.365967 0.421387
vt 0.687012 0.446777
vt 0.730469 0.561768
vt 0.628906 0.603027
vt 0.582520 0.443848
vt 0.367920 0.311035
vt 0.274170 0.310547
vt 0.567383 0.302734
vt 0.482666 0.306641
vt 0.673828 0.307129
vt 0.958496 0.194824
vt 0.480957 0.433105
vt 0.465332 0.598633
vt 0.938477 0.391602
vt 0.969238 0.188477
vt 0.736328 0.564453
vt 0.633301 0.610840
vt 0.195923 0.216309
vt 0.810059 0.442871
vt 0.059753 0.314453
vt 0.056885 0.385742
vt 0.011635 0.074219
vt 0.004688 0.074707
vt 0.014717 0.069336
vt 0.010727 0.062988
vt 0.045624 0.060059
vt 0.075928 0.078613
vt 0.015884 0.572510
vt 0.023010 0.579590
vt 0.011635 0.074219
vt 0.014717 0.069336
vt 0.592285 0.624268
vt 0.592285 0.624268
vt 0.594727 0.634033
vt 0.691406 0.979645
vt 0.907715 0.885315
vt 0.908203 0.781860
vt 0.695313 0.739258
vt 0.691406 0.979645
vt 0.695313 0.739258
vt 0.908203 0.781860
vt 0.907715 0.885315
vt 0.977539 0.776123
vt 0.974121 0.535645
vt 0.761230 0.578125
vt 0.761230 0.681641
vt 0.977539 0.776123
vt 0.761230 0.681641
vt 0.761230 0.578125
vt 0.974121 0.535645
vt 0.462158 0.609863
vt 0.664063 0.778931
vt 0.562500 0.935486
vt 0.358643 0.964905
vt 0.421875 0.804077
vt 0.092163 0.943970
vt 0.178101 0.785522
vt 0.664063 0.778931
vt 0.421875 0.804077
vt 0.358643 0.964905
vt 0.562500 0.935486
vt 0.092163 0.943970
vt 0.178101 0.785522
vn -0.0314 0.1219 0.9921
vn -0.3500 0.6433 0.6809
vn -0.4052 0.7147 0.5701
vn -0.6809 0.4103 0.6066
vn 0.2318 -0.1727 0.9573
vn 0.2010 -0.1569 0.9669
vn 0.0976 -0.7897 0.6056
vn 0.2938 -0.7659 0.5719
vn 0.2554 -0.1724 0.9513
vn 0.4492 -0.7010 0.5540
vn 0.6228 -0.6106 0.4892
vn 0.5285 -0.5578 0.6399
vn 0.3725 -0.1740 0.9116
vn 0.1312 -0.1516 0.9797
vn -0.1929 -0.7715 0.6063
vn -0.0760 -0.0962 0.9925
vn -0.5779 -0.5749 0.5793
vn 0.7376 -0.0635 0.6722
vn -0.2220 0.5284 0.8195
vn 0.3166 -0.0069 0.9485
vn 0.7692 0.0177 0.6388
vn -0.5974 0.3602 0.7165
vn 0.7126 -0.1692 0.6808
vn 0.7444 0.0727 0.6638
vn -0.0772 -0.6301 0.7727
vn -0.4940 -0.4196 0.7615
vn 0.6945 0.1822 0.6960
vn -0.5069 -0.5416 0.6706
vn -0.1349 -0.7460 0.6522
vn -0.4823 0.5339 0.6945
vn -0.2899 0.6716 0.6819
vn 0.5090 0.6828 0.5241
vn 0.2520 0.1636 0.9538
vn 0.3715 0.1769 0.9114
vn 0.6649 0.5760 0.4756
vn -0.1784 0.7136 0.6775
vn -0.4633 0.6506 0.6018
vn 0.0683 0.1527 0.9859
vn 0.2033 0.1344 0.9699
vn 0.4621 0.5705 0.6790
vn 0.2642 0.0002 0.9645
vn 0.3522 -0.0036 0.9359
vn 0.1666 -0.0059 0.9860
vn 0.1923 -0.0014 0.9813
vn 0.1229 0.0009 0.9924
vn -0.7502 -0.3082 0.5851
vn -0.8141 0.0346 0.5797
vn 0.2187 0.1427 0.9653
vn 0.3280 0.7249 0.6057
vn 0.5221 0.6286 -0.5764
vn 0.2112 0.6301 -0.7473
vn 0.0628 -0.7904 -0.6093
vn -0.1296 -0.7935 -0.5945
vn -0.3487 -0.7581 -0.5512
vn -0.5778 -0.5749 0.5793
vn -0.6509 -0.5560 -0.5168
vn 0.3173 0.7262 -0.6099
vn 0.5089 0.6829 0.5241
vn -0.6916 0.3257 -0.6447
vn -0.4823 0.5338 0.6945
vn -0.5773 0.4889 -0.6540
vn -0.3865 0.6455 -0.6587
vn -0.2899 0.6716 0.6818
vn 0.2114 0.7774 0.5924
vn 0.1597 0.7685 -0.6196
vn -0.6018 -0.3676 -0.7090
vn -0.4941 -0.4195 0.7615
vn -0.3112 -0.5736 -0.7577
vn 0.6581 0.0855 -0.7480
vn 0.6945 0.1821 0.6960
vn 0.6197 0.2016 -0.7585
vn -0.4347 0.4474 -0.7816
vn -0.2219 0.5284 0.8195
vn 0.7474 0.1901 -0.6365
vn 0.7943 0.1920 0.5764
vn 0.6320 -0.1884 -0.7517
vn -0.7233 0.4098 -0.5558
vn -0.8470 0.0342 -0.5305
vn -0.6809 0.4103 0.6067
vn 0.4717 -0.6540 -0.5915
vn 0.2301 -0.7463 -0.6245
vn -0.2430 0.1251 -0.9619
vn -0.4614 0.7141 -0.5265
vn -0.5063 0.5979 -0.6214
vn -0.2009 -0.1549 -0.9673
vn -0.1958 -0.1733 -0.9652
vn -0.1565 -0.1759 -0.9719
vn 0.0323 -0.1895 -0.9813
vn 0.3080 -0.6257 -0.7167
vn -0.2000 -0.1498 -0.9683
vn -0.2724 -0.0972 -0.9572
vn 0.0340 -0.0068 -0.9994
vn 0.6486 -0.0725 -0.7577
vn 0.6827 0.0187 -0.7305
vn -0.5794 -0.5234 -0.6248
vn -0.2079 -0.7367 -0.6434
vn 0.0301 0.1914 -0.9810
vn -0.1622 0.1673 -0.9725
vn -0.2559 0.1518 -0.9547
vn -0.5875 0.6266 -0.5121
vn -0.4267 0.6613 -0.6169
vn -0.1990 0.1348 -0.9707
vn -0.1553 -0.0000 -0.9879
vn -0.0013 -0.0035 -1.0000
vn -0.2421 -0.0054 -0.9702
vn -0.2362 -0.0015 -0.9717
vn -0.2177 0.0021 -0.9760
vn -0.7899 -0.3051 -0.5320
vn -0.2101 0.1420 -0.9673
vn 0.0797 0.7598 -0.6453
vn 0.7615 -0.0760 -0.6437
vn 0.8032 -0.0769 0.5907
vn 0.3717 -0.6788 -0.6334
vn 0.4215 -0.6794 0.6007
vn 0.2115 0.7774 0.5923
vn 0.4215 -0.6793 0.6007
vn -0.0452 0.7787 0.6258
vn -0.2291 0.7830 -0.5783
vn -0.0453 0.7787 0.6258
vn -0.2105 -0.0958 0.9729
vn -0.2469 -0.0353 0.9684
vn -0.2177 -0.0840 0.9724
vn -0.1995 -0.1135 0.9733
vn 0.2105 0.0958 -0.9729
vn 0.1995 0.1136 -0.9733
vn 0.2177 0.0840 -0.9724
vn 0.2469 0.0353 -0.9684
vn -0.4998 -0.0863 -0.8619
vn -0.4880 -0.1091 -0.8660
vn -0.5099 -0.0660 -0.8577
vn -0.5398 -0.0025 -0.8418
vn 0.4998 0.0863 0.8619
vn 0.5398 0.0026 0.8418
vn 0.5099 0.0662 0.8577
vn 0.4882 0.1089 0.8659
vn -0.2164 0.0026 -0.9763
vn -0.2181 0.0091 -0.9759
vn -0.2124 -0.0048 -0.9772
vn -0.2135 -0.0024 -0.9769
vn -0.2116 0.0038 -0.9773
vn -0.2123 0.0124 -0.9771
vn 0.2164 -0.0026 0.9763
vn 0.2135 0.0024 0.9769
vn 0.2124 0.0048 0.9772
vn 0.2182 -0.0092 0.9759
vn 0.2116 -0.0038 0.9773
vn 0.2123 -0.0124 0.9771
usemtl "".005
s 1
f 1/1/1 2/2/2 3/3/3
f 3/3/3 4/4/4 1/1/1
f 5/5/5 6/6/6 7/7/7
f 7/7/7 8/8/8 5/5/5
f 9/9/9 5/5/5 8/8/8
f 8/8/8 10/10/10 9/9/9
f 11/11/11 12/12/12 13/13/13
f 13/13/13 9/9/9 10/10/10
f 10/10/10 11/11/11 13/13/13
f 6/6/6 14/14/14 15/15/15
f 15/15/15 7/7/7 6/6/6
f 15/15/15 14/14/14 16/16/16
f 16/16/16 17/17/17 15/15/15
f 18/18/18 19/19/19 20/20/20
f 13/13/13 12/12/12 20/20/20
f 20/20/20 21/21/21 18/18/18
f 22/22/22 19/19/19 18/18/18
f 18/18/18 23/23/23 22/22/22
f 24/24/24 21/21/21 20/20/20
f 20/20/20 25/25/25 24/24/24
f 12/12/12 25/25/25 20/20/20
f 24/24/24 25/25/25 26/26/26
f 26/26/26 27/27/27 24/24/24
f 27/27/27 26/26/26 28/28/28
f 28/28/28 29/29/29 27/27/27
f 30/30/30 22/22/22 23/23/23
f 23/23/23 31/31/31 30/30/30
f 32/32/32 33/33/33 34/34/34
f 34/34/34 35/35/35 32/32/32
f 36/36/36 37/37/37 38/38/38
f 38/38/38 2/2/2 1/1/1
f 38/38/38 37/37/37 2/2/2
f 38/38/38 39/39/39 36/36/36
f 19/19/19 40/40/40 20/20/20
f 40/40/40 35/35/35 34/34/34
f 20/20/20 40/40/40 34/34/34
f 41/41/41 9/9/9 13/13/13
f 34/34/34 33/33/33 41/41/41
f 34/34/34 42/42/42 20/20/20
f 20/20/20 42/42/42 13/13/13
f 41/41/41 42/42/42 34/34/34
f 13/13/13 42/42/42 41/41/41
f 43/43/43 39/39/39 38/38/38
f 14/14/14 6/6/6 43/43/43
f 43/43/43 6/6/6 5/5/5
f 9/9/9 41/41/41 44/44/44
f 44/44/44 41/41/41 33/33/33
f 5/5/5 44/44/44 43/43/43
f 44/44/44 5/5/5 9/9/9
f 38/38/38 45/45/45 43/43/43
f 43/43/43 45/45/45 14/14/14
f 16/16/16 14/14/14 45/45/45
f 45/45/45 1/1/1 16/16/16
f 1/1/1 45/45/45 38/38/38
f 46/46/46 17/17/17 16/16/16
f 16/16/16 47/47/47 46/46/46
f 47/47/47 16/16/16 1/1/1
f 1/1/1 4/4/4 47/47/47
f 48/48/48 39/39/39 43/43/43
f 33/33/33 48/48/48 44/44/44
f 43/43/43 44/44/44 48/48/48
f 33/33/33 32/32/32 49/49/49
f 49/49/49 48/48/48 33/33/33
f 39/39/39 48/48/48 49/49/49
f 49/49/49 36/36/36 39/39/39
f 50/50/50 51/51/35 52/52/40
f 52/52/40 53/53/51 50/50/50
f 54/54/52 55/55/8 56/56/7
f 56/56/7 57/57/53 54/54/52
f 58/58/54 57/57/53 56/56/7
f 56/56/7 59/59/15 58/58/54
f 58/58/54 59/59/15 60/60/55
f 60/60/55 61/61/56 58/58/54
f 51/51/35 50/50/50 62/62/57
f 62/62/57 63/63/58 51/51/35
f 64/64/59 65/65/22 66/66/60
f 66/66/60 67/67/61 64/64/59
f 68/68/62 67/67/61 66/66/60
f 64/64/59 67/67/61 68/68/62
f 66/66/60 69/69/63 68/68/62
f 68/68/62 69/69/63 70/70/64
f 70/70/64 71/71/65 68/68/62
f 72/72/66 73/73/67 74/74/25
f 74/74/25 75/75/68 72/72/66
f 72/72/66 75/75/68 76/76/69
f 76/76/69 77/77/24 78/78/70
f 76/76/69 79/79/71 72/72/66
f 78/78/70 79/79/71 76/76/69
f 80/80/72 53/53/51 52/52/40
f 65/65/22 64/64/59 80/80/72
f 52/52/40 81/81/73 80/80/72
f 80/80/72 81/81/73 65/65/22
f 82/82/74 71/71/65 70/70/64
f 68/68/62 71/71/65 82/82/74
f 70/70/64 83/83/75 82/82/74
f 82/82/74 83/83/75 84/84/23
f 82/82/74 85/85/76 68/68/62
f 84/84/23 85/85/76 82/82/74
f 68/68/62 85/85/76 64/64/59
f 86/86/77 87/87/78 88/88/47
f 88/88/47 89/89/79 86/86/77
f 90/90/80 91/91/11 92/92/10
f 92/92/10 55/55/8 54/54/52
f 92/92/10 93/93/81 90/90/80
f 54/54/52 93/93/81 92/92/10
f 87/87/78 86/86/77 94/94/82
f 94/94/82 86/86/77 95/95/83
f 95/95/83 96/96/84 94/94/82
f 97/97/85 57/57/53 58/58/54
f 98/98/86 54/54/52 57/57/53
f 57/57/53 97/97/85 98/98/86
f 54/54/52 98/98/86 99/99/87
f 99/99/87 93/93/81 54/54/52
f 93/93/81 99/99/87 100/100/88
f 100/100/88 90/90/80 93/93/81
f 101/101/89 75/75/68 74/74/25
f 90/90/80 100/100/88 101/101/89
f 58/58/54 102/102/90 97/97/85
f 103/103/91 102/102/90 58/58/54
f 94/94/82 103/103/91 87/87/78
f 58/58/54 61/61/56 103/103/91
f 76/76/69 75/75/68 104/104/92
f 80/80/72 104/104/92 53/53/51
f 104/104/92 101/101/89 100/100/88
f 101/101/89 104/104/92 75/75/68
f 64/64/59 85/85/76 105/105/93
f 105/105/93 85/85/76 84/84/23
f 104/104/92 80/80/72 105/105/93
f 105/105/93 80/80/72 64/64/59
f 105/105/93 106/106/94 104/104/92
f 104/104/92 106/106/94 76/76/69
f 107/107/95 72/72/66 79/79/71
f 79/79/71 108/108/96 107/107/95
f 109/109/97 53/53/51 104/104/92
f 62/62/57 50/50/50 109/109/97
f 53/53/51 109/109/97 50/50/50
f 109/109/97 110/110/98 62/62/57
f 94/94/82 96/96/84 111/111/99
f 111/111/99 96/96/84 112/112/100
f 111/111/99 112/112/100 113/113/101
f 113/113/101 114/114/102 111/111/99
f 100/100/88 99/99/87 115/115/103
f 115/115/103 110/110/98 109/109/97
f 100/100/88 116/116/104 104/104/92
f 115/115/103 116/116/104 100/100/88
f 104/104/92 116/116/104 109/109/97
f 109/109/97 116/116/104 115/115/103
f 98/98/86 97/97/85 117/117/105
f 117/117/105 97/97/85 102/102/90
f 111/111/99 114/114/102 117/117/105
f 117/117/105 118/118/106 98/98/86
f 118/118/106 115/115/103 99/99/87
f 110/110/98 115/115/103 118/118/106
f 99/99/87 98/98/86 118/118/106
f 111/111/99 119/119/107 94/94/82
f 119/119/107 102/102/90 103/103/91
f 102/102/90 119/119/107 117/117/105
f 103/103/91 94/94/82 119/119/107
f 117/117/105 119/119/107 111/111/99
f 103/103/91 61/61/56 120/120/108
f 120/120/108 61/61/56 60/60/55
f 120/120/108 87/87/78 103/103/91
f 88/88/47 87/87/78 120/120/108
f 121/121/109 118/118/106 117/117/105
f 117/117/105 114/114/102 121/121/109
f 118/118/106 121/121/109 110/110/98
f 110/110/98 121/121/109 122/122/110
f 114/114/102 113/113/101 122/122/110
f 63/63/58 62/62/57 122/122/110
f 122/122/110 121/121/109 114/114/102
f 122/122/110 62/62/57 110/110/98
f 123/123/3 95/95/83 86/86/77
f 86/86/77 89/89/79 123/123/3
f 96/96/84 95/95/83 123/123/3
f 60/60/55 124/124/46 120/120/108
f 120/120/108 124/124/46 88/88/47
f 113/113/101 112/112/100 125/125/37
f 125/125/37 126/126/36 113/113/101
f 74/74/25 127/127/12 101/101/89
f 127/127/12 91/91/11 90/90/80
f 90/90/80 101/101/89 127/127/12
f 112/112/100 96/96/84 128/128/2
f 128/128/2 125/125/37 112/112/100
f 123/123/3 128/128/2 96/96/84
f 76/76/69 106/106/94 129/129/21
f 129/129/21 77/77/24 76/76/69
f 106/106/94 105/105/93 130/130/18
f 84/84/23 130/130/18 105/105/93
f 130/130/18 129/129/21 106/106/94
f 131/131/111 79/79/71 78/78/70
f 108/108/96 79/79/71 131/131/111
f 78/78/70 132/132/112 131/131/111
f 131/131/111 133/133/113 108/108/96
f 133/133/113 131/131/111 132/132/112
f 108/108/96 133/133/113 134/134/114
f 132/132/112 134/134/114 133/133/113
f 107/107/95 108/108/96 135/135/29
f 134/134/114 135/135/29 108/108/96
f 135/135/29 136/136/28 107/107/95
f 136/136/28 73/73/67 72/72/66
f 72/72/66 107/107/95 136/136/28
f 31/31/31 23/23/23 137/137/75
f 137/137/75 138/138/115 31/31/31
f 139/139/112 27/27/27 29/29/29
f 29/29/29 140/140/116 139/139/112
f 141/141/117 36/36/36 49/49/49
f 142/142/118 122/122/110 113/113/101
f 142/142/118 113/113/101 126/126/36
f 126/126/36 143/143/119 142/142/118
f 144/144/120 145/145/121 146/146/122
f 146/146/122 147/147/123 144/144/120
f 148/148/124 149/149/125 150/150/126
f 150/150/126 151/151/127 148/148/124
f 152/152/128 153/153/129 154/154/130
f 154/154/130 155/155/131 152/152/128
f 156/156/132 157/157/133 158/158/134
f 158/158/134 159/159/135 156/156/132
f 122/122/110 160/160/49 63/63/58
f 142/142/118 143/143/119 160/160/49
f 160/160/49 122/122/110 142/142/118
f 161/161/136 162/162/137 163/163/138
f 163/163/138 164/164/139 161/161/136
f 164/164/139 163/163/138 165/165/140
f 165/165/140 166/166/141 164/164/139
f 167/167/142 168/168/143 169/169/144
f 169/169/144 170/170/145 167/167/142
f 171/171/146 169/169/144 168/168/143
f 168/168/143 172/172/147 171/171/146
